<?xml version="1.0" encoding="UTF-8"?><svg xmlns="http://www.w3.org/2000/svg" xmlns:xlink="http://www.w3.org/1999/xlink" fill-opacity="1" color-rendering="auto" color-interpolation="auto" text-rendering="auto" stroke="black" stroke-linecap="square" width="421" stroke-miterlimit="10" shape-rendering="auto" stroke-opacity="1" fill="black" stroke-dasharray="none" font-weight="normal" stroke-width="1" height="339" font-family="'Dialog'" font-style="normal" stroke-linejoin="miter" font-size="12px" stroke-dashoffset="0" image-rendering="auto">
  <!--Generated by ySVG 2.5-->
  <defs id="genericDefs"/>
  <g>
    <defs id="defs1">
      <clipPath clipPathUnits="userSpaceOnUse" id="clipPath1">
        <path d="M0 0 L421 0 L421 339 L0 339 L0 0 Z"/>
      </clipPath>
      <clipPath clipPathUnits="userSpaceOnUse" id="clipPath2">
        <path d="M310 257 L731 257 L731 596 L310 596 L310 257 Z"/>
      </clipPath>
    </defs>
    <g fill="white" text-rendering="geometricPrecision" shape-rendering="geometricPrecision" transform="translate(-310,-257)" stroke="white">
      <rect x="310" width="421" height="339" y="257" clip-path="url(#clipPath2)" stroke="none"/>
    </g>
    <g fill="rgb(255,204,0)" text-rendering="geometricPrecision" shape-rendering="geometricPrecision" transform="matrix(1,0,0,1,-310,-257)" stroke="rgb(255,204,0)">
      <circle r="15" clip-path="url(#clipPath2)" cx="340" cy="287" stroke="none"/>
    </g>
    <g text-rendering="geometricPrecision" stroke-miterlimit="1.45" shape-rendering="geometricPrecision" transform="matrix(1,0,0,1,-310,-257)" stroke-linecap="butt">
      <circle fill="none" r="15" clip-path="url(#clipPath2)" cx="340" cy="287"/>
    </g>
    <g fill="rgb(255,204,0)" text-rendering="geometricPrecision" shape-rendering="geometricPrecision" transform="matrix(1,0,0,1,-310,-257)" stroke="rgb(255,204,0)">
      <circle r="15" clip-path="url(#clipPath2)" cx="527" cy="566" stroke="none"/>
    </g>
    <g text-rendering="geometricPrecision" stroke-miterlimit="1.45" shape-rendering="geometricPrecision" transform="matrix(1,0,0,1,-310,-257)" stroke-linecap="butt">
      <circle fill="none" r="15" clip-path="url(#clipPath2)" cx="527" cy="566"/>
    </g>
    <g fill="rgb(255,204,0)" text-rendering="geometricPrecision" shape-rendering="geometricPrecision" transform="matrix(1,0,0,1,-310,-257)" stroke="rgb(255,204,0)">
      <circle r="15" clip-path="url(#clipPath2)" cx="701" cy="287" stroke="none"/>
    </g>
    <g text-rendering="geometricPrecision" stroke-miterlimit="1.45" shape-rendering="geometricPrecision" transform="matrix(1,0,0,1,-310,-257)" stroke-linecap="butt">
      <circle fill="none" r="15" clip-path="url(#clipPath2)" cx="701" cy="287"/>
      <path fill="none" d="M348.3514 299.4601 L514.1945 546.8945" clip-path="url(#clipPath2)"/>
      <path d="M518.6486 553.5399 L516.1208 540.788 L513.6378 546.0638 L507.8141 546.3557 Z" clip-path="url(#clipPath2)" stroke="none"/>
      <path fill="none" d="M534.9377 553.2723 L688.8289 306.5157" clip-path="url(#clipPath2)"/>
      <path d="M693.0623 299.7277 L682.4697 307.2639 L688.2997 307.3643 L690.9548 312.5557 Z" clip-path="url(#clipPath2)" stroke="none"/>
      <path fill="none" d="M686 287 L363 287" clip-path="url(#clipPath2)"/>
      <path d="M355 287 L367 292 L364 287 L367 282 Z" clip-path="url(#clipPath2)" stroke="none"/>
    </g>
  </g>
</svg>
